#!OML:ASF I:\salsa\salsa 7_09\Patient 1\Session 1\dancermale.ASF
:FULLY-SPECIFIED
:DEGREES
1682
root 0.229061 16.7176 -6.84073 -163.637 107.992 -171.752
lowerback -8.94282 2.24638 1.16357
upperback -2.41434 3.15696 -5.03643
thorax 2.85127 1.63817 -5.547
lowerneck -10.1323 -9.88664 -3.1497
upperneck 29.8339 -14.4187 4.84639
head 12.0832 -6.01126 0.427926
rclavicle 3.30837e-014 -5.08889e-014
rhumerus 20.1231 29.9486 -52.8384
rradius 109.725
rwrist 12.5478
rhand 5.56791 -2.84274
rfingers 7.12502
rthumb 30.9115 -30.261
lclavicle 3.30837e-014 -5.08889e-014
lhumerus 3.51128 -17.5244 63.3193
lradius 56.827
lwrist 9.88279
lhand -16.8033 56.4785
lfingers 7.12502
lthumb 9.42518 446.248
rfemur -6.66729 0.739512 24.1134
rtibia 42.8715
rfoot -21.1917 -11.0632
rtoes -3.72332
lfemur -34.8752 3.91467 -22.0261
ltibia 48.3497
lfoot 340.435 4.26956
ltoes -6.01479
1683
root 0.207676 16.7192 -6.80551 -164.433 108.338 -172.58
lowerback -9.32015 2.0628 1.36416
upperback -2.6419 2.90384 -5.16841
thorax 2.81229 1.51254 -5.82625
lowerneck -10.7054 -9.30903 -2.87962
upperneck 30.5502 -13.6611 4.73855
head 12.4201 -5.60601 0.419252
rclavicle -1.54058e-015 3.81667e-014
rhumerus 18.2687 27.7077 -50.8827
rradius 113.859
rwrist 11.8736
rhand 5.95529 -4.2992
rfingers 7.12502
rthumb 31.2807 -31.6468
lclavicle -1.54058e-015 3.81667e-014
lhumerus 0.132082 -15.5997 61.2621
lradius 55.439
lwrist 9.15774
lhand -17.8417 56.79
lfingers 7.12502
lthumb 8.4231 446.602
rfemur -6.20269 0.308302 24.2984
rtibia 41.9535
rfoot -21.718 -10.8954
rtoes -3.65327
lfemur -36.057 4.89463 -21.7071
ltibia 50.1749
lfoot 341.291 3.85083
ltoes -6.11003
1684
root 0.193476 16.7149 -6.77387 -165.2 108.636 -173.44
lowerback -9.83847 1.92289 1.60984
upperback -2.77543 2.70488 -5.26502
thorax 2.95234 1.41726 -6.08495
lowerneck -11.2518 -8.80373 -2.49121
upperneck 30.7518 -12.9545 4.44488
head 12.5241 -5.26711 0.324614
rclavicle -4.5969e-015 1.59028e-014
rhumerus 15.9969 24.669 -48.6623
rradius 117.725
rwrist 11.7748
rhand 6.22364 -4.86791
rfingers 7.12502
rthumb 31.5364 -32.1657
lclavicle -4.5969e-015 1.59028e-014
lhumerus -3.0773 -13.9464 59.2256
lradius 53.9179
lwrist 9.40434
lhand -19.141 57.5818
lfingers 7.12502
lthumb 7.16903 447.44
rfemur -5.84044 -0.0611777 24.4798
rtibia 41.1119
rfoot -22.139 -10.619
rtoes -3.91294
lfemur -37.3498 5.89476 -21.4056
ltibia 52.0544
lfoot 341.973 3.62831
ltoes -8.00892
1685
root 0.189943 16.7032 -6.74252 -166.107 108.998 -174.455
lowerback -10.4663 1.81388 1.79548
upperback -2.79199 2.54607 -5.23797
thorax 3.2691 1.34457 -6.1713
lowerneck -11.7051 -8.25258 -2.05259
upperneck 30.4101 -12.1283 4.01683
head 12.372 -4.92036 0.200108
rclavicle -1.42876e-014 -3.33958e-014
rhumerus 14.4104 20.675 -45.9439
rradius 120.487
rwrist 12.0541
rhand 6.59993 -5.01374
rfingers 7.12502
rthumb 31.8948 -32.2407
lclavicle -1.42876e-014 -3.33958e-014
lhumerus -6.32154 -12.1606 57.3749
lradius 52.4706
lwrist 10.2866
lhand -19.6502 57.5751
lfingers 7.12502
lthumb 6.67755 447.45
rfemur -5.42568 -0.143593 24.743
rtibia 40.2751
rfoot -22.6514 -10.4323
rtoes -4.80444
lfemur -38.3141 6.99226 -21.0481
ltibia 53.5407
lfoot 342.183 3.27707
ltoes -7.78401
1686
root 0.198859 16.6824 -6.71179 -166.998 109.396 -175.396
lowerback -11.0331 1.7215 1.82247
upperback -2.77713 2.41738 -5.10387
thorax 3.57688 1.28481 -6.05103
lowerneck -12.1809 -7.73755 -1.7899
upperneck 29.9296 -11.3429 3.68045
head 12.1999 -4.60528 0.131655
rclavicle -1.38652e-014 1.43125e-014
rhumerus 12.3378 16.1905 -43.2644
rradius 123.096
rwrist 13.0514
rhand 7.76786 -5.65885
rfingers 7.12502
rthumb 33.0063 -32.6577
lclavicle -1.38652e-014 1.43125e-014
lhumerus -9.84212 -9.78181 55.8103
lradius 51.344
lwrist 10.8191
lhand -18.9348 59.4329
lfingers 7.12502
lthumb 7.36806 449.285
rfemur -4.76117 -0.0228669 25.0371
rtibia 39.243
rfoot -23.2785 -10.3875
rtoes -5.90625
lfemur -39.0397 8.15123 -20.7492
ltibia 54.8376
lfoot 341.818 2.67459
ltoes -5.94473
1687
root 0.215511 16.6564 -6.68704 -167.416 109.599 -175.78
lowerback -11.4944 1.57221 1.60311
upperback -2.70744 2.23875 -4.92477
thorax 3.8678 1.19768 -5.75184
lowerneck -12.532 -7.35792 -1.39588
upperneck 29.0636 -10.6609 2.95415
head 11.8244 -4.39326 -0.105171
rclavicle 4.2192e-014 2.54444e-014
rhumerus 10.7019 10.8832 -40.4135
rradius 124.075
rwrist 14.8914
rhand 8.95556 -5.16404
rfingers 7.12502
rthumb 34.1351 -31.9177
lclavicle 4.2192e-014 2.54444e-014
lhumerus -13.5146 -7.07085 54.386
lradius 50.5732
lwrist 11.5184
lhand -17.101 60.3629
lfingers 7.12502
lthumb 9.1379 269.855
rfemur -3.87702 0.0537784 25.2458
rtibia 37.9694
rfoot -23.9041 -10.6493
rtoes -6.75761
lfemur -39.7712 9.11309 -20.8009
ltibia 56.4381
lfoot 341.342 2.27515
ltoes -8.05484
